<svg width="236" height="81" viewBox="0 0 236 81" fill="none" xmlns="http://www.w3.org/2000/svg">
  <path d="M37.8433 0.0231934L36.8261 0.120393L34.283 0.449455C31.863 0.824079 29.266 1.4822 26.9589 2.29929C15.8709 6.22677 7.09926 14.7399 2.76887 25.6181C1.29489 29.3219 0.373264 33.2898 0.0945404 37.2619L0.00197141 38.2744C-0.0254941 40.6396 -0.0600803 43.0139 0.233902 45.3619C1.06499 51.9957 3.40769 58.1821 7.22642 63.6881C9.9394 67.5993 13.3146 70.9092 17.1933 73.6683C20.2512 75.8441 24.1035 77.7598 27.6709 78.9434C30.8284 79.9903 34.1162 80.6788 37.4364 80.9097L38.4537 81.0018H42.7261C43.9834 80.9998 45.4401 80.7841 46.6933 80.6099C51.4917 79.9447 56.4151 78.267 60.6296 75.8968C64.9691 73.4556 68.6729 70.4141 71.8935 66.6243C82.2948 54.3832 84.3679 36.702 77.1729 22.3781C75.1385 18.3292 72.4082 14.6244 69.1744 11.4432C65.7025 8.02902 61.4423 5.23756 56.9675 3.31483C53.0999 1.65332 49.2548 0.63373 45.0658 0.188231L42.7261 0.0231934H37.8433ZM34.5882 15.6045H37.4364H39.9796C40.9917 15.5964 42.2307 15.8769 43.2347 16.0581C47.4369 16.8145 52.3665 19.1594 55.5433 21.9904C57.9145 24.1034 59.9053 26.2995 61.5013 29.0606C61.6539 29.3239 61.8482 29.6752 61.9123 29.9719C62.1727 31.1727 61.3264 32.0556 60.1209 31.9928C58.9806 31.9331 58.653 30.8862 58.1129 30.0731C56.7111 27.9661 55.7285 26.8726 53.9158 25.1129C52.8568 24.0852 51.509 23.1719 50.2537 22.3974C47.4186 20.6488 44.6863 19.6444 41.4037 19.0966C40.7852 18.9934 39.7761 18.8415 39.1658 18.8344H36.114C34.6533 18.8364 31.8192 19.3963 30.4175 19.856C26.7605 21.0538 23.2032 23.1385 20.4495 25.8247L19.1993 27.2381C15.1243 31.9098 13.1539 37.5859 13.2261 43.7419L13.3187 44.7544C13.4051 46.0078 13.5425 47.073 13.8324 48.2981L14.0145 49.2093C14.7489 51.9846 16.0164 54.6606 17.6735 57.0056L18.6175 58.2206C19.2451 59.0448 20.3763 60.2355 21.1606 60.9118C22.0965 61.7177 22.3213 62.066 23.602 62.0681H61.6468C64.1075 62.064 66.2773 60.6374 67.4593 58.5243C67.7268 58.0464 67.9394 57.5351 68.0808 57.0056C68.386 55.8564 68.4471 54.6728 70.0899 54.7831C70.9352 54.8409 71.3981 55.3765 71.4123 56.1956C71.4418 57.9644 71.1509 58.8878 70.2984 60.4481C69.0523 62.7282 66.5255 64.576 63.9864 65.1562C63.4402 65.2807 62.014 65.4083 61.4433 65.4093H23.2968C20.9632 65.4053 19.8046 64.4636 18.2106 62.8781L16.761 61.3593C13.632 57.6435 11.806 54.4389 10.6352 49.7156C10.4399 48.9279 9.98009 46.6062 9.97094 45.8681V40.5019C9.97297 39.4246 10.4999 36.8336 10.7939 35.7431C12.7867 28.3509 18.2035 21.7119 25.1278 18.3545C27.5611 17.1749 30.1917 16.3113 32.8589 15.8435L34.5882 15.6045ZM40.0813 34.1343H47.5071H61.8502C62.1819 34.1241 62.4402 34.113 62.7658 34.2021C64.2458 34.6111 64.5225 36.0074 65.0098 37.2619L68.8133 46.6781L69.8051 49.1081C70.0268 49.6609 70.275 50.1236 70.2913 50.7281C70.333 52.2367 69.3605 52.5486 68.0554 52.5506H60.5278H45.9813C44.6853 52.5354 43.3497 52.2195 42.3192 51.3984C41.1463 50.4648 39.8198 48.0197 38.9674 46.6781L36.9227 43.4381C36.4599 42.701 35.8302 41.731 35.582 40.9069C35.1344 39.4225 35.4894 37.598 36.3968 36.3506C36.7 35.9355 37.3215 35.327 37.7416 35.0283C38.3713 34.5808 39.3275 34.3195 40.0813 34.1343Z" fill="white"/>
  <path d="M94.6695 65.3065C93.7306 65.3065 92.9412 64.9886 92.3014 64.3507C91.6626 63.7139 91.3431 62.9292 91.3431 61.9957V18.8784C91.3431 17.9024 91.6626 17.1066 92.3014 16.492C92.9412 15.8754 93.7306 15.5676 94.6695 15.5676H109.962C112.819 15.5676 115.357 16.1305 117.575 17.2554C119.793 18.3813 121.532 19.9517 122.79 21.9686C124.048 23.9855 124.678 26.2666 124.678 28.8141C124.678 30.8948 124.113 32.7638 122.982 34.4193C121.851 36.0747 120.305 37.4122 118.344 38.4308C121.244 39.1102 123.527 40.47 125.19 42.5081C126.853 44.5453 127.685 47.1352 127.685 50.277C127.685 53.1637 126.991 55.7536 125.605 58.0469C124.218 60.3402 122.278 62.1232 119.782 63.397C117.287 64.6697 114.461 65.3065 111.304 65.3065H94.6695ZM109.962 36.0109C112.478 36.0109 114.494 35.3953 116.008 34.1641C117.522 32.9329 118.279 31.1489 118.279 28.8141C118.279 26.4793 117.522 24.7064 116.008 23.4964C114.494 22.2875 112.478 21.682 109.962 21.682H97.9959V36.0109H109.962ZM111.304 59.1921C114.29 59.1921 116.701 58.4175 118.535 56.8684C120.369 55.3193 121.287 53.1221 121.287 50.277C121.287 47.6445 120.379 45.6286 118.567 44.2273C116.755 42.826 114.334 42.1254 111.304 42.1254H97.9959V59.1921H111.304ZM145.671 65.3065C144.732 65.3065 143.954 64.9987 143.335 64.3842C142.717 63.7686 142.409 62.993 142.409 62.0584V33.7186C142.409 32.7416 142.717 31.9569 143.335 31.3625C143.954 30.7682 144.732 30.4705 145.671 30.4705C146.653 30.4705 147.441 30.7682 148.038 31.3625C148.635 31.9569 148.934 32.7416 148.934 33.7186V62.0584C148.934 62.993 148.635 63.7686 148.038 64.3842C147.441 64.9987 146.653 65.3065 145.671 65.3065ZM145.671 24.8015C144.519 24.8015 143.528 24.3885 142.696 23.5602C141.863 22.732 141.448 21.7448 141.448 20.5987C141.448 19.4525 141.863 18.4653 142.696 17.6371C143.528 16.8089 144.519 16.3948 145.671 16.3948C146.822 16.3948 147.814 16.8089 148.646 17.6371C149.479 18.4653 149.895 19.4525 149.895 20.5987C149.895 21.7448 149.479 22.732 148.646 23.5602C147.814 24.3885 146.822 24.8015 145.671 24.8015ZM192.302 60.7219C192.771 61.2312 193.006 61.8681 193.006 62.6315C193.006 63.5661 192.623 64.3518 191.854 64.9886C191.214 65.4979 190.531 65.753 189.807 65.753C188.868 65.753 188.1 65.3703 187.504 64.6059L175.346 49.6402L172.147 52.4417V62.185C172.147 63.1195 171.858 63.8739 171.282 64.4479C170.706 65.02 169.95 65.3065 169.013 65.3065C168.074 65.3065 167.316 65.02 166.739 64.4479C166.164 63.8739 165.876 63.1195 165.876 62.185V18.6891C165.876 17.7546 166.164 17.0013 166.739 16.4282C167.316 15.8551 168.074 15.5676 169.013 15.5676C169.95 15.5676 170.706 15.8551 171.282 16.4282C171.858 17.0013 172.147 17.7546 172.147 18.6891V44.6091L187.694 30.7885C188.25 30.2366 188.911 29.9612 189.678 29.9612C190.575 29.9612 191.3 30.3004 191.854 30.9798C192.408 31.5316 192.686 32.1897 192.686 32.9542C192.686 33.8452 192.344 34.5671 191.661 35.1199L179.889 45.5648L192.302 60.7219ZM233.82 30.7885C235.142 31.2977 235.804 32.126 235.804 33.2721C235.804 33.6974 235.676 34.2066 235.419 34.8L215.84 78.6179C215.329 79.9331 214.497 80.5902 213.345 80.5902C212.919 80.5902 212.407 80.4636 211.81 80.2095C210.529 79.6577 209.889 78.8295 209.889 77.7258C209.889 77.2155 210.018 76.7063 210.274 76.197L216.671 61.8671L202.276 34.6734C202.063 34.2917 201.957 33.8462 201.957 33.3349C201.957 32.7841 202.127 32.2748 202.469 31.809C202.809 31.3413 203.257 30.9808 203.811 30.7247C204.195 30.5556 204.621 30.4705 205.091 30.4705C206.285 30.4705 207.182 31.0649 207.779 32.2535L219.488 55.4347L229.79 32.3163C230.343 31.0861 231.175 30.4705 232.285 30.4705C232.838 30.4705 233.35 30.5758 233.82 30.7885Z" fill="white"/>
</svg>
