<svg width="358" height="358" viewBox="0 0 358 358" fill="none" xmlns="http://www.w3.org/2000/svg">
<path d="M168.788 5.00526L163.446 5.47168L151.789 6.97782C143.135 8.25561 132.882 10.8501 124.591 13.6486C81.5167 28.1901 44.2263 60.5771 25.178 102.074C16.2997 121.411 10.899 141.578 9.44197 162.805L9 168.636V182.239L9.44197 187.098C10.0296 195.639 11.1613 203.996 13.0554 212.362C19.6995 241.727 33.6482 268.483 54.1244 290.585L59.5106 296.395C77.5827 313.716 97.2963 326.091 120.706 334.821C135.524 340.346 151.1 343.474 166.846 344.558L171.702 345H185.301L191.129 344.558C214.044 342.984 238.974 336.323 259.124 325.148C273.598 317.122 287.109 307.536 298.95 295.924L303.851 290.585C323.487 269.396 337.168 243.777 344.172 215.763C348.295 199.264 349.169 184.552 348.975 167.664L348.533 162.805C347.785 151.898 346.08 141.306 343.22 130.739C326.585 69.2884 278.469 23.0158 216.385 8.9601C204.588 6.28791 192.523 4.90323 180.445 5.00526H168.788Z" fill="white"/>
<g filter="url(#filter0_d)">
<path fill-rule="evenodd" clip-rule="evenodd" d="M162.988 0.485576L168.488 0.00541245H180.487C192.921 -0.0995985 205.34 1.32579 217.484 4.07658C281.395 18.5457 330.926 66.1792 348.05 129.437C350.994 140.315 352.749 151.218 353.519 162.447L353.974 167.448C354.174 184.833 353.274 199.977 349.03 216.962C341.82 245.8 327.736 272.173 307.523 293.984L302.478 299.481C290.289 311.434 276.38 321.302 261.481 329.564C240.738 341.067 215.074 347.924 191.486 349.545L185.487 350H171.488L166.488 349.545C150.279 348.43 134.245 345.209 118.992 339.522C94.8933 330.534 74.5998 317.796 55.9962 299.966L50.4516 293.984C29.3731 271.233 15.0142 243.69 8.17469 213.461C6.22484 204.849 5.05992 196.246 4.45497 187.454L4 182.452V168.448L4.45497 162.447C5.95486 140.595 11.5144 119.835 20.6538 99.9288C40.2623 57.2117 78.6495 23.8722 122.991 8.90296C131.526 6.02214 142.08 3.35139 150.989 2.03599L162.988 0.485576ZM127.99 104.523H128.99C129.945 102.567 130.5 101.757 131.805 100.021L131.847 99.9649C132.505 99.0889 133.322 98.0007 134.14 97.3006C137.519 94.3898 141.024 95.4701 143.769 98.5409C144.359 99.1999 145.241 100.312 146.243 101.574C148.578 104.518 151.562 108.279 152.993 109.014C154.026 109.541 155.305 109.533 156.478 109.526C156.65 109.525 156.821 109.523 156.988 109.524H169.487C173.466 109.517 173.723 109.079 175.072 106.783C175.771 105.594 176.763 103.906 178.716 101.522C181.436 98.2059 185.156 95.35 188.986 93.4245C210.399 82.6464 237.077 98.621 236.187 123.028C235.937 129.835 234.662 134.721 230.937 140.533C222.268 154.052 204.469 158.743 189.985 152.316C185.826 150.471 182.621 147.805 179.506 144.534C178.008 142.962 177.183 141.783 176.57 140.907C175.257 139.03 174.914 138.539 170.987 138.532H103.492C103.322 138.532 103.153 138.532 102.984 138.533C101.453 138.536 99.9424 138.539 98.4972 137.917C96.0964 136.888 92.4064 131.859 89.8457 128.369C89.1695 127.448 88.5721 126.634 88.098 126.029C87.8656 125.732 87.6119 125.416 87.3458 125.085C85.585 122.894 83.2829 120.029 83.0483 117.526C82.7371 114.189 84.881 111.273 86.8803 108.553C87.3861 107.865 87.8827 107.19 88.3279 106.523C88.697 105.97 89.0885 105.344 89.5041 104.68C92.4436 99.9793 96.5846 93.3578 102.472 97.0255C103.556 97.697 104.518 98.8003 105.408 99.8195C105.618 100.06 105.824 100.297 106.027 100.522C106.13 100.636 106.229 100.744 106.323 100.848C107.56 102.207 108.025 102.719 108.991 104.523C109.346 103.98 109.776 103.255 110.248 102.459C111.582 100.212 113.256 97.3907 114.541 96.4454C118.931 93.2295 122.3 96.6754 124.99 100.021C125.059 100.107 125.127 100.192 125.194 100.275C126.36 101.723 127.191 102.754 127.99 104.523ZM204.484 102.117H201.985C194.65 103.287 189.011 106.128 185.476 113.025C178.686 126.269 187.756 142.859 202.984 143.034C206.804 143.074 208.969 142.814 212.484 141.143C215.039 139.923 216.983 138.652 218.893 136.527C222.838 132.131 224.048 127.259 223.983 121.527C223.853 110.754 214.994 102.682 204.484 102.117ZM238.982 164.07C248.316 165.3 257.555 167.621 266.48 170.541C266.48 170.064 266.464 169.492 266.446 168.863C266.369 166.097 266.262 162.24 267.35 160.549C269 157.978 271.164 157.573 273.979 157.538H292.978C293.436 157.538 294.117 157.53 294.935 157.521C298.602 157.478 305.022 157.405 306.477 157.863C308.247 158.418 309.932 159.788 310.607 161.539C310.993 162.539 310.985 163.961 310.978 165.118C310.977 165.263 310.977 165.404 310.977 165.54V237.06V249.564C310.977 249.894 310.984 250.239 310.991 250.593C311.03 252.454 311.073 254.555 310.107 256.056C308.197 259.032 305.622 259.062 302.477 259.067H274.979C274.86 259.066 274.74 259.066 274.621 259.066C272.283 259.066 270.067 259.066 268.245 257.286C266.367 255.457 266.417 253.03 266.467 250.622C266.478 250.1 266.489 249.578 266.48 249.064C266.406 245.24 265.208 245.089 261.345 244.6C260.782 244.529 260.162 244.45 259.48 244.352C252.886 243.402 246.136 243.052 239.482 243.062L233.482 243.562H229.483L211.984 245.698L181.486 249.609L175.487 250.064C174.566 250.066 173.642 250.08 172.717 250.094C168.784 250.153 164.829 250.212 160.988 249.354C151.778 247.288 134.465 237.245 125.99 232.159C108.401 221.601 91.1977 210.023 74.494 198.119L60.995 188.717C60.4171 188.323 59.8454 187.939 59.2823 187.561C52.386 182.929 46.7791 179.163 47.001 169.541C47.076 166.425 47.9009 163.694 49.5308 161.039C53.7105 154.232 59.4951 152.526 66.9945 152.536C72.4327 152.545 75.1977 153.959 79.1904 156.002C80.0541 156.444 80.9753 156.915 81.9934 157.408L97.9922 165.11L132.49 181.545C134.55 174.553 141.774 171.552 148.489 171.542H157.488L165.487 172.042H175.487L181.486 172.452C189.03 171.913 194.658 170.317 200.894 168.548C203.287 167.869 205.769 167.165 208.484 166.485C214.304 165.03 220.033 164.405 225.983 163.995L229.983 163.559C231.684 163.492 232.488 163.637 233.639 163.843C234.03 163.913 234.462 163.991 234.982 164.07H238.982ZM281.179 170.696L278.479 169.541V186.046C278.479 186.185 278.48 186.327 278.48 186.472C278.486 187.642 278.492 188.979 278.154 190.047C277.099 193.393 273.299 195.779 269.975 193.973C268.27 193.048 266.945 191.477 266.595 189.547C266.444 188.717 266.472 187.893 266.499 187.108C266.56 185.3 266.615 183.703 264.45 182.74L249.481 178.544C236.852 175.838 228.898 174.923 215.984 177.253C211.522 178.06 207.303 179.273 203.108 180.478C196.021 182.515 189.001 184.533 180.986 184.545L169.987 184.045H160.988L153.488 183.545C153.222 183.543 152.921 183.537 152.593 183.53C150.387 183.487 147.015 183.421 145.509 184.2C142.564 185.731 142.174 189.672 145.044 191.502C146.703 192.565 148.85 192.558 150.885 192.551C151.609 192.549 152.319 192.547 152.988 192.593L157.988 193.048L198.485 194.548L204.984 195.048C205.462 195.054 205.948 195.045 206.438 195.036C208.522 194.997 210.669 194.956 212.479 196.054C216.718 198.619 217.118 203.931 212.479 206.327C210.777 207.202 207.415 207.126 205.039 207.072C204.659 207.063 204.303 207.055 203.984 207.052L196.485 206.552L167.987 205.551L159.488 205.051C155.478 205.046 146.549 204.856 142.989 203.676C140.429 202.831 137.434 200.9 135.534 199.005C134.752 198.222 134.275 197.6 133.853 197.051C133.069 196.031 132.477 195.261 130.485 194.178L121.491 189.892L108.491 183.655L85.9931 172.697L72.4941 166.25C72.2107 166.127 71.9204 165.998 71.6248 165.866C69.8403 165.071 67.8604 164.189 65.9946 164.095C62.3549 163.905 58.3802 167.09 59.1701 171.042C59.6532 173.437 65.0172 176.94 68.1368 178.977C68.6653 179.323 69.1293 179.626 69.4943 179.874L99.9921 200.885C100.595 201.287 101.198 201.689 101.801 202.091C115.446 211.195 129.101 220.305 143.489 228.208C150.103 231.844 161.458 237.971 168.987 238.061H173.987L178.986 237.605L222.983 231.979L233.982 231.059C249.606 230.984 250.966 231.009 266.48 233.059C266.48 232.653 266.468 232.203 266.456 231.725C266.4 229.488 266.328 226.662 267.35 225.067C270.02 220.881 275.504 221.181 277.754 225.562C278.49 226.998 278.485 228.483 278.48 230.026C278.479 230.203 278.478 230.38 278.479 230.559V247.063H281.479V187.546V176.043L281.179 170.696Z" fill="#002B6C"/>
</g>
<defs>
<filter id="filter0_d" x="0" y="0" width="358" height="358" filterUnits="userSpaceOnUse" color-interpolation-filters="sRGB">
<feFlood flood-opacity="0" result="BackgroundImageFix"/>
<feColorMatrix in="SourceAlpha" type="matrix" values="0 0 0 0 0 0 0 0 0 0 0 0 0 0 0 0 0 0 127 0"/>
<feOffset dy="4"/>
<feGaussianBlur stdDeviation="2"/>
<feColorMatrix type="matrix" values="0 0 0 0 0 0 0 0 0 0 0 0 0 0 0 0 0 0 0.25 0"/>
<feBlend mode="normal" in2="BackgroundImageFix" result="effect1_dropShadow"/>
<feBlend mode="normal" in="SourceGraphic" in2="effect1_dropShadow" result="shape"/>
</filter>
</defs>
</svg>
