<svg width="350" height="350" viewBox="0 0 350 350" fill="none" xmlns="http://www.w3.org/2000/svg">
  <path d="M164.488 0.00541426L158.988 0.485551L146.989 2.03599C138.08 3.35137 127.526 6.02213 118.991 8.90295C74.6495 23.8722 36.2623 57.2117 16.6538 99.9288C7.51445 119.835 1.95486 140.595 0.454966 162.447L0 168.448V182.452L0.454966 187.454C1.05992 196.246 2.22484 204.849 4.17469 213.461C11.0142 243.69 25.3731 271.233 46.4516 293.984L51.9962 299.966C70.5998 317.796 90.8933 330.534 114.992 339.522C130.245 345.209 146.279 348.43 162.488 349.545L167.488 350H181.487L187.486 349.545C211.074 347.924 236.738 341.067 257.481 329.564C272.38 321.302 286.289 311.434 298.478 299.481L303.523 293.984C323.736 272.173 337.82 245.8 345.03 216.962C349.274 199.977 350.174 184.833 349.974 167.448L349.519 162.447C348.749 151.218 346.994 140.315 344.05 129.437C326.926 66.1792 277.395 18.5457 213.484 4.07657C201.34 1.32579 188.921 -0.0996156 176.487 0.00541426H164.488Z" fill="white"/>
  <path fill-rule="evenodd" clip-rule="evenodd" d="M158.988 0.485576L164.488 0.00541245H176.487C188.921 -0.0995985 201.34 1.32579 213.484 4.07658C277.395 18.5457 326.926 66.1792 344.05 129.437C346.994 140.315 348.749 151.218 349.519 162.447L349.974 167.448C350.174 184.833 349.274 199.977 345.03 216.962C337.82 245.8 323.736 272.173 303.523 293.984L298.478 299.481C286.289 311.434 272.38 321.302 257.481 329.564C236.738 341.067 211.074 347.924 187.486 349.545L181.487 350H167.488L162.488 349.545C146.279 348.43 130.245 345.209 114.992 339.522C90.8933 330.534 70.5998 317.796 51.9962 299.966L46.4516 293.984C25.3731 271.233 11.0142 243.69 4.17469 213.461C2.22484 204.849 1.05992 196.246 0.454966 187.454L0 182.452V168.448L0.454966 162.447C1.95486 140.595 7.51445 119.835 16.6538 99.9288C36.2623 57.2117 74.6495 23.8722 118.991 8.90296C127.526 6.02214 138.08 3.35139 146.989 2.03599L158.988 0.485576ZM123.99 104.523H124.99C125.945 102.567 126.5 101.757 127.805 100.021L127.847 99.9649C128.505 99.0889 129.322 98.0007 130.14 97.3006C133.519 94.3898 137.024 95.4701 139.769 98.541C140.359 99.1999 141.241 100.312 142.243 101.574C144.578 104.518 147.562 108.279 148.993 109.014C150.026 109.541 151.305 109.533 152.478 109.526C152.65 109.525 152.821 109.523 152.988 109.524H165.487C169.466 109.517 169.723 109.079 171.072 106.783C171.771 105.594 172.763 103.906 174.716 101.522C177.436 98.2059 181.156 95.35 184.986 93.4245C206.399 82.6464 233.077 98.621 232.187 123.028C231.937 129.835 230.662 134.721 226.937 140.533C218.268 154.052 200.469 158.743 185.985 152.316C181.826 150.471 178.621 147.805 175.506 144.534C174.008 142.962 173.183 141.783 172.57 140.907C171.257 139.03 170.914 138.539 166.987 138.532H99.4918C99.3222 138.532 99.1528 138.532 98.9836 138.533C97.4525 138.536 95.9424 138.539 94.4972 137.917C92.0964 136.888 88.4064 131.859 85.8457 128.369C85.1695 127.448 84.5721 126.634 84.098 126.029C83.8656 125.732 83.6119 125.416 83.3458 125.085C81.585 122.894 79.2829 120.029 79.0483 117.526C78.7371 114.189 80.881 111.273 82.8803 108.553C83.3861 107.865 83.8827 107.19 84.3279 106.523C84.697 105.97 85.0885 105.344 85.5041 104.68C88.4436 99.9793 92.5846 93.3578 98.4719 97.0255C99.5556 97.697 100.518 98.8003 101.408 99.8195C101.618 100.06 101.824 100.297 102.027 100.522C102.13 100.636 102.229 100.744 102.323 100.848C103.56 102.207 104.025 102.719 104.991 104.523C105.346 103.98 105.776 103.255 106.248 102.459C107.582 100.212 109.256 97.3907 110.541 96.4454C114.931 93.2295 118.3 96.6754 120.99 100.021C121.059 100.107 121.127 100.192 121.194 100.275C122.36 101.723 123.191 102.754 123.99 104.523ZM200.484 102.117H197.985C190.65 103.287 185.011 106.128 181.476 113.025C174.686 126.269 183.756 142.859 198.984 143.034C202.804 143.074 204.969 142.814 208.484 141.143C211.039 139.923 212.983 138.652 214.893 136.527C218.838 132.131 220.048 127.259 219.983 121.527C219.853 110.754 210.994 102.682 200.484 102.117ZM234.982 164.07C244.316 165.3 253.555 167.621 262.48 170.541C262.48 170.064 262.464 169.492 262.446 168.863C262.369 166.097 262.262 162.24 263.35 160.549C265 157.978 267.164 157.573 269.979 157.538H288.978C289.436 157.538 290.117 157.53 290.935 157.521C294.602 157.478 301.022 157.405 302.477 157.863C304.247 158.418 305.932 159.788 306.607 161.539C306.993 162.539 306.985 163.961 306.978 165.118C306.977 165.263 306.977 165.404 306.977 165.54V237.06V249.564C306.977 249.894 306.984 250.239 306.991 250.593C307.03 252.454 307.073 254.555 306.107 256.056C304.197 259.032 301.622 259.062 298.477 259.067H270.979C270.86 259.066 270.74 259.066 270.621 259.066C268.283 259.066 266.067 259.066 264.245 257.286C262.367 255.457 262.417 253.03 262.467 250.622C262.478 250.1 262.489 249.578 262.48 249.064C262.406 245.24 261.208 245.089 257.345 244.6C256.782 244.529 256.162 244.45 255.48 244.352C248.886 243.402 242.136 243.052 235.482 243.062L229.482 243.562H225.483L207.984 245.698L177.486 249.609L171.487 250.064C170.566 250.066 169.642 250.08 168.717 250.094C164.784 250.153 160.829 250.212 156.988 249.354C147.778 247.288 130.465 237.245 121.99 232.159C104.401 221.601 87.1977 210.023 70.494 198.119L56.995 188.717C56.4171 188.323 55.8454 187.939 55.2823 187.561C48.386 182.929 42.7791 179.163 43.001 169.541C43.076 166.425 43.9009 163.694 45.5308 161.039C49.7105 154.232 55.4951 152.526 62.9945 152.536C68.4327 152.545 71.1977 153.959 75.1904 156.002C76.0541 156.444 76.9753 156.915 77.9934 157.408L93.9922 165.11L128.49 181.545C130.55 174.553 137.774 171.552 144.489 171.542H153.488L161.487 172.042H171.487L177.486 172.452C185.03 171.913 190.658 170.317 196.894 168.548C199.287 167.869 201.769 167.165 204.484 166.485C210.304 165.03 216.033 164.405 221.983 163.995L225.983 163.559C227.684 163.492 228.488 163.637 229.639 163.843C230.03 163.913 230.462 163.991 230.982 164.07H234.982ZM277.179 170.696L274.479 169.541V186.046C274.479 186.185 274.48 186.327 274.48 186.472C274.486 187.642 274.492 188.979 274.154 190.047C273.099 193.393 269.299 195.779 265.975 193.973C264.27 193.048 262.945 191.477 262.595 189.547C262.444 188.717 262.472 187.893 262.499 187.108C262.56 185.3 262.615 183.703 260.45 182.74L245.481 178.544C232.852 175.838 224.898 174.923 211.984 177.253C207.522 178.06 203.303 179.273 199.108 180.478C192.021 182.515 185.001 184.533 176.986 184.545L165.987 184.045H156.988L149.488 183.545C149.222 183.543 148.921 183.537 148.593 183.53C146.387 183.487 143.015 183.421 141.509 184.2C138.564 185.731 138.174 189.672 141.044 191.502C142.703 192.565 144.85 192.558 146.885 192.551C147.609 192.549 148.319 192.547 148.988 192.593L153.988 193.048L194.485 194.548L200.984 195.048C201.462 195.054 201.948 195.045 202.438 195.036C204.522 194.997 206.669 194.956 208.479 196.054C212.718 198.619 213.118 203.931 208.479 206.327C206.777 207.202 203.415 207.126 201.039 207.072C200.659 207.063 200.303 207.055 199.984 207.052L192.485 206.552L163.987 205.551L155.488 205.051C151.478 205.046 142.549 204.856 138.989 203.676C136.429 202.831 133.434 200.9 131.534 199.005C130.752 198.222 130.275 197.6 129.853 197.051C129.069 196.031 128.477 195.261 126.485 194.178L117.491 189.892L104.491 183.655L81.9931 172.697L68.4941 166.25C68.2107 166.127 67.9204 165.998 67.6248 165.866C65.8403 165.071 63.8604 164.189 61.9946 164.095C58.3549 163.905 54.3802 167.09 55.1701 171.042C55.6532 173.437 61.0172 176.94 64.1368 178.977C64.6653 179.323 65.1293 179.626 65.4943 179.874L95.9921 200.885C96.595 201.287 97.1978 201.689 97.8006 202.091C111.446 211.195 125.101 220.305 139.489 228.208C146.103 231.844 157.458 237.971 164.987 238.061H169.987L174.986 237.606L218.983 231.979L229.982 231.059C245.606 230.984 246.966 231.009 262.48 233.059C262.48 232.653 262.468 232.203 262.456 231.725C262.4 229.488 262.328 226.662 263.35 225.067C266.02 220.881 271.504 221.181 273.754 225.562C274.49 226.998 274.485 228.483 274.48 230.026C274.479 230.203 274.478 230.38 274.479 230.559V247.063H277.479V187.546V176.043L277.179 170.696Z" fill="#002B6C"/>
</svg>
