<svg width="872" height="615" viewBox="0 0 872 615" fill="none" xmlns="http://www.w3.org/2000/svg">
<path fill-rule="evenodd" clip-rule="evenodd" d="M872 592.213C871.324 586.81 870.409 581.441 869.25 576.111C838.508 434.702 647.577 374.892 442.793 442.523C335.01 478.118 244.871 541.923 188.145 615H872V592.213Z" fill="white" fill-opacity="0.02"/>
<path fill-rule="evenodd" clip-rule="evenodd" d="M872 30.6907C742.14 -51.7097 537.279 36.5411 392.354 246.12C311.073 363.66 264.434 496.531 255.209 615H872V30.6907Z" fill="white" fill-opacity="0.03"/>
<path fill-rule="evenodd" clip-rule="evenodd" d="M872 267.839C807.351 244.08 727.427 242.895 645.742 269.872C478.748 325.022 365.874 477.572 387.758 615H872V267.839Z" fill="white" fill-opacity="0.02"/>
<path fill-rule="evenodd" clip-rule="evenodd" d="M543.61 615C497.74 561.068 433.61 516.597 358.544 491.806C198.735 439.028 45.6634 494.043 0.537109 615H543.61Z" fill="white" fill-opacity="0.02"/>
</svg>
