<svg width="885" height="703" viewBox="0 0 885 703" fill="none" xmlns="http://www.w3.org/2000/svg">
  <path fill-rule="evenodd" clip-rule="evenodd" d="M885 592.212C884.324 586.81 883.409 581.44 882.251 576.111C851.508 434.701 660.577 374.892 455.793 442.522C306.256 491.907 190.683 595.59 151.178 703H868.3C876.83 682.063 882.502 660.93 885 639.979V592.212Z" fill="#C4C4C4" fill-opacity="0.1"/>
  <path fill-rule="evenodd" clip-rule="evenodd" d="M885 30.6905C755.141 -51.7099 550.279 36.5408 405.354 246.12C303.18 393.874 255.746 565.855 268.559 703H857.47C858.122 702.065 858.773 701.128 859.423 700.189C868.369 687.251 876.896 674.127 885 660.857V30.6905Z" fill="#C4C4C4" fill-opacity="0.1"/>
  <path fill-rule="evenodd" clip-rule="evenodd" d="M885 267.839C820.351 244.08 740.427 242.895 658.742 269.872C486.966 326.601 372.454 486.389 402.972 626.767C409.181 655.328 420.915 680.885 437.116 703H885V267.839Z" fill="#C4C4C4" fill-opacity="0.1"/>
  <path fill-rule="evenodd" clip-rule="evenodd" d="M611.346 703C572.961 611.224 484.67 529.166 371.544 491.806C199.768 435.076 35.776 502.887 5.25788 643.265C0.987423 662.908 -0.443203 682.932 0.725537 703H611.346Z" fill="#C4C4C4" fill-opacity="0.1"/>
</svg>
