<svg width="700" height="1194" viewBox="0 0 700 1194" fill="none" xmlns="http://www.w3.org/2000/svg">
  <path fill-rule="evenodd" clip-rule="evenodd" d="M307.886 935.857L0 1000V875.198C35.1082 848.139 79.3821 832 127.5 832C205.027 832 272.575 873.895 307.886 935.857Z" fill="#C4C4C4" fill-opacity="0.05"/>
  <path fill-rule="evenodd" clip-rule="evenodd" d="M519.097 891.855L0 1000V610.854C74.9489 615.227 159.98 636.019 244.996 673.887C371.062 730.038 469.239 811.327 519.097 891.855Z" fill="#C4C4C4" fill-opacity="0.05"/>
  <path fill-rule="evenodd" clip-rule="evenodd" d="M549.104 885.603C511.162 864.121 445.812 858.856 375.976 875.288C312.868 890.137 260.939 919.211 233.527 951.349L549.104 885.603Z" fill="#C4C4C4" fill-opacity="0.05"/>
  <path fill-rule="evenodd" clip-rule="evenodd" d="M154.456 967.822L0 1000V692.621C92.3156 700.84 165 789.651 165 898C165 922.509 161.281 946.019 154.456 967.822Z" fill="#C4C4C4" fill-opacity="0.05"/>
  <path fill-rule="evenodd" clip-rule="evenodd" d="M609.989 872.919L0 1000V87.9999V55.4334C66.549 14.2979 142.442 -9 223 -9C486.44 -9 700 240.154 700 547.5C700 669 666.626 781.405 609.989 872.919Z" fill="#C4C4C4" fill-opacity="0.1"/>
</svg>
