<svg width="689" height="1000" viewBox="0 0 689 1000" fill="none" xmlns="http://www.w3.org/2000/svg">
<path fill-rule="evenodd" clip-rule="evenodd" d="M307.886 935.857L0 1000V875.198C35.1082 848.139 79.3821 832 127.5 832C205.027 832 272.575 873.895 307.886 935.857Z" fill="#C4C4C4" fill-opacity="0.05"/>
<path fill-rule="evenodd" clip-rule="evenodd" d="M519.097 891.855L0 1000V610.855C74.9489 615.227 159.98 636.019 244.996 673.887C371.062 730.039 469.239 811.328 519.097 891.855Z" fill="#C4C4C4" fill-opacity="0.05"/>
<path fill-rule="evenodd" clip-rule="evenodd" d="M549.104 885.604C511.163 864.122 445.812 858.856 375.976 875.288C312.868 890.137 260.939 919.211 233.527 951.349L549.104 885.604Z" fill="#C4C4C4" fill-opacity="0.05"/>
<path fill-rule="evenodd" clip-rule="evenodd" d="M154.456 967.822L-6.10352e-05 1000V692.621C92.3156 700.84 165 789.652 165 898C165 922.509 161.281 946.019 154.456 967.822Z" fill="#C4C4C4" fill-opacity="0.05"/>
<path fill-rule="evenodd" clip-rule="evenodd" d="M600.47 874.901L0 999.999V-5.95534e-05V-0.000422844L0.150721 -0.40737C5.20568 -0.584844 41.8817 2.47635 263.5 31.9999C552.5 70.5 689 250.243 689 554C689 673.763 656.184 784.586 600.47 874.901Z" fill="#C4C4C4" fill-opacity="0.1"/>
</svg>
