<svg width="307" height="306" viewBox="0 0 307 306" fill="none" xmlns="http://www.w3.org/2000/svg">
<g filter="url(#filter0_d)">
<path d="M138.669 0L134.943 0.357688L125.628 1.56861C116.764 2.9472 107.252 5.36905 98.8013 8.37586C58.1888 22.8287 26.0602 54.1562 10.1989 94.1875C4.80009 107.817 1.42441 122.419 0.40351 137.036L0.0644515 140.761C-0.0361482 149.465 -0.162829 158.202 0.913961 166.843C3.95803 191.255 12.5388 214.02 26.5259 234.282C36.4629 248.675 48.8255 260.855 63.0325 271.008C74.2326 279.015 88.3426 286.065 101.409 290.42C112.975 294.273 125.017 296.807 137.178 297.656L140.904 297.995H156.553C161.158 297.988 166.494 297.194 171.084 296.553C188.659 294.105 206.693 287.931 222.129 279.209C238.024 270.226 251.59 259.033 263.386 245.087C301.484 200.041 309.077 134.975 282.724 82.2645C275.272 67.3646 265.271 53.7315 253.427 42.0246C240.71 29.4608 225.106 19.1885 208.716 12.113C194.55 5.99873 180.466 2.24673 165.123 0.607324L156.553 0H138.669Z" fill="#002B6C"/>
</g>
<path d="M126.369 57.3569L120.408 58.2213C110.638 59.9427 101.003 63.1209 92.0908 67.4616C69.5676 78.4344 51.2473 99.0909 42.5175 122.508C39.8125 129.77 38.3966 135.743 37.2192 143.373C36.8914 145.482 36.6045 145.903 36.5746 148.217V167.964C36.5821 171.575 38.1023 179.209 39.0077 182.868C42.7634 198.085 49.3694 211.509 59.5747 223.481C63.8931 228.548 70.9984 236.715 77.1871 239.219C79.7767 240.27 82.6084 240.616 85.3842 240.62H225.106C239.171 240.597 251.877 233.675 258.297 220.872C259.854 217.765 261.575 213.57 261.62 210.067V207.459C261.613 204.147 260.502 201.77 256.776 201.516C250.759 201.11 250.535 205.466 249.418 209.695C248.9 211.643 248.121 213.525 247.141 215.284C242.812 223.06 234.864 228.309 225.851 228.324H86.5019C81.811 228.317 80.9876 227.035 77.5597 224.069C74.3368 221.275 70.5587 217.195 67.9692 213.793L62.5406 206.341C52.7638 190.983 48.2852 174.176 48.4976 156.042L48.8366 152.316C50.1817 132.769 57.5031 114.974 70.3762 100.153L74.9553 94.9514C82.1575 87.8945 90.2055 82.5627 99.1701 78.0767C107.468 73.9298 115.001 71.5936 124.134 70.1256L131.586 69.2276C140.286 69.127 147.562 69.0674 156.177 70.908C170.968 74.0639 184.065 81.0723 195.671 90.6368L200.142 94.9365C205.5 100.294 208.142 103.629 212.393 109.84C214.502 112.921 215.951 117.422 220.262 117.65C226.451 117.974 228.389 112.541 225.736 107.605C221.712 100.112 213.191 89.4556 206.849 83.863L201.633 79.2876C189.244 69.4065 174.076 61.8466 158.412 59.0112C154.735 58.3442 150.196 57.3122 146.489 57.3569H137.92H126.369Z" fill="white"/>
<path d="M146.49 125.68C143.714 126.384 140.655 127.137 138.293 128.821C136.754 129.92 134.478 132.16 133.367 133.687C132.287 135.178 131.437 136.791 130.841 138.531C127.786 147.507 130.908 152.686 135.528 160.141L142.075 170.574C145.35 175.745 150.849 185.943 155.432 189.349C159.493 192.37 164.263 193.294 169.218 193.302H249.325C253.167 193.294 257.343 192.434 257.515 187.713C257.671 183.469 253.778 175.883 252.101 171.692L238.17 137.041C236.385 132.424 235.372 127.286 229.95 125.781C228.758 125.453 227.812 125.494 226.597 125.49H173.317H156.177L146.49 125.68ZM146.49 137.186C148.334 136.936 150.03 136.936 151.706 137.871C158.126 141.448 155.413 151.907 147.608 151.281C139.884 150.659 138.032 139.727 146.49 137.186Z" fill="white"/>
<defs>
<filter id="filter0_d" x="0" y="0" width="306.275" height="305.995" filterUnits="userSpaceOnUse" color-interpolation-filters="sRGB">
<feFlood flood-opacity="0" result="BackgroundImageFix"/>
<feColorMatrix in="SourceAlpha" type="matrix" values="0 0 0 0 0 0 0 0 0 0 0 0 0 0 0 0 0 0 127 0"/>
<feOffset dx="4" dy="4"/>
<feGaussianBlur stdDeviation="2"/>
<feColorMatrix type="matrix" values="0 0 0 0 0 0 0 0 0 0 0 0 0 0 0 0 0 0 0.25 0"/>
<feBlend mode="normal" in2="BackgroundImageFix" result="effect1_dropShadow"/>
<feBlend mode="normal" in="SourceGraphic" in2="effect1_dropShadow" result="shape"/>
</filter>
</defs>
</svg>
