<svg width="621" height="214" viewBox="0 0 621 214" fill="none" xmlns="http://www.w3.org/2000/svg">
<g filter="url(#filter0_i)">
<path d="M99.5804 0.0598145L96.9037 0.316614L90.2119 1.18599C83.8439 2.17574 77.0103 3.91448 70.9395 6.07321C41.7632 16.4495 18.6818 38.9409 7.28695 67.681C3.40838 77.4662 0.983268 87.9495 0.249845 98.4435L0.00626337 101.118C-0.0660082 107.367 -0.157017 113.64 0.616556 119.843C2.80344 137.37 8.96793 153.714 19.0164 168.261C26.1552 178.594 35.0366 187.339 45.2429 194.628C53.2891 200.377 63.4259 205.438 72.8132 208.565C81.1217 211.331 89.7729 213.15 98.5097 213.76L101.186 214.003H112.429C115.737 213.998 119.57 213.428 122.868 212.968C135.494 211.211 148.449 206.778 159.539 200.516C170.958 194.067 180.704 186.031 189.178 176.018C216.548 143.678 222.003 96.9642 203.071 59.121C197.717 48.4237 190.533 38.6359 182.024 30.2311C172.888 21.211 161.678 13.836 149.903 8.75623C139.726 4.36656 129.608 1.67284 118.585 0.495839L112.429 0.0598145H99.5804ZM91.0149 41.2253H98.5097H105.202C107.865 41.2039 111.125 41.9449 113.767 42.4237C124.825 44.4219 137.796 50.6172 146.155 58.0965C152.395 63.6792 157.633 69.4813 161.833 76.776C162.234 77.4715 162.746 78.3997 162.914 79.1835C163.6 82.3561 161.373 84.6887 158.201 84.5228C155.2 84.365 154.338 81.599 152.917 79.451C149.228 73.8843 146.643 70.9953 141.873 66.3462C139.086 63.6311 135.54 61.2182 132.236 59.1719C124.776 54.5521 117.587 51.8986 108.949 50.4514C107.321 50.1785 104.666 49.7773 103.06 49.7586H95.03C91.1862 49.7639 83.7288 51.2432 80.0403 52.4576C70.4175 55.6221 61.057 61.13 53.8111 68.2267L50.5214 71.961C39.7984 84.3035 34.6136 99.2995 34.8037 115.563L35.0473 118.238C35.2748 121.55 35.6361 124.364 36.399 127.601L36.8781 130.008C38.8107 137.341 42.1459 144.411 46.5063 150.606L48.9903 153.816C50.6419 155.993 53.6184 159.139 55.6821 160.926C58.1447 163.055 58.7363 163.976 62.1063 163.981H162.216C168.691 163.97 174.4 160.201 177.511 154.618C178.215 153.356 178.774 152.005 179.146 150.606C179.949 147.57 180.11 144.443 184.433 144.734C186.657 144.887 187.875 146.302 187.912 148.466C187.99 153.139 187.224 155.579 184.981 159.701C181.702 165.725 175.053 170.607 168.372 172.14C166.935 172.469 163.182 172.806 161.68 172.808H61.3032C55.1628 172.798 52.1141 170.31 47.9196 166.121L44.1053 162.108C35.8717 152.291 31.067 143.825 27.9861 131.346C27.4721 129.265 26.2623 123.131 26.2382 121.181V107.003C26.2435 104.157 27.6301 97.312 28.4036 94.431C33.6473 74.9008 47.9009 57.3609 66.1214 48.4906C72.5241 45.3742 79.4461 43.0925 86.4645 41.8566L91.0149 41.2253ZM105.469 90.1804H125.009H162.751C163.624 90.1537 164.304 90.1242 165.16 90.3596C169.055 91.4403 169.783 95.1292 171.065 98.4435L181.073 123.321L183.683 129.741C184.267 131.201 184.92 132.424 184.963 134.021C185.072 138.007 182.513 138.831 179.079 138.836H159.271H120.994C117.584 138.796 114.07 137.961 111.358 135.792C108.272 133.325 104.781 126.865 102.538 123.321L97.158 114.761C95.9401 112.814 94.2832 110.251 93.63 108.073C92.4523 104.152 93.3865 99.3316 95.7741 96.036C96.5718 94.9392 98.2072 93.3316 99.3127 92.5424C100.97 91.3601 103.486 90.6699 105.469 90.1804Z" fill="white"/>
</g>
<g filter="url(#filter1_i)">
<path d="M249.109 172.538C246.639 172.538 244.562 171.698 242.878 170.013C241.197 168.33 240.356 166.257 240.356 163.791V49.8763C240.356 47.2976 241.197 45.195 242.878 43.5713C244.562 41.9422 246.639 41.129 249.109 41.129H289.349C296.867 41.129 303.546 42.6163 309.381 45.5882C315.219 48.5628 319.794 52.7118 323.105 58.0403C326.416 63.3689 328.073 69.3957 328.073 76.126C328.073 81.6231 326.584 86.5612 323.611 90.9348C320.634 95.3084 316.565 98.8421 311.405 101.533C319.036 103.328 325.043 106.921 329.419 112.305C333.796 117.687 335.985 124.53 335.985 132.831C335.985 140.457 334.16 147.3 330.511 153.358C326.863 159.417 321.758 164.128 315.19 167.493C308.624 170.856 301.188 172.538 292.882 172.538H249.109ZM289.349 95.1399C295.971 95.1399 301.273 93.5135 305.259 90.2607C309.242 87.0079 311.233 82.2945 311.233 76.126C311.233 69.9574 309.242 65.2735 305.259 62.0769C301.273 58.883 295.971 57.2833 289.349 57.2833H257.862V95.1399H289.349ZM292.882 156.384C300.738 156.384 307.082 154.337 311.908 150.245C316.734 146.152 319.149 140.347 319.149 132.831C319.149 125.876 316.761 120.55 311.991 116.847C307.224 113.145 300.853 111.294 292.882 111.294H257.862V156.384H292.882ZM383.312 172.538C380.842 172.538 378.794 171.725 377.167 170.101C375.539 168.475 374.728 166.426 374.728 163.957V89.0837C374.728 86.5023 375.539 84.4292 377.167 82.859C378.794 81.2887 380.842 80.5023 383.312 80.5023C385.895 80.5023 387.97 81.2887 389.541 82.859C391.112 84.4292 391.899 86.5023 391.899 89.0837V163.957C391.899 166.426 391.112 168.475 389.541 170.101C387.97 171.725 385.895 172.538 383.312 172.538ZM383.312 65.525C380.282 65.525 377.672 64.4336 375.483 62.2454C373.293 60.0573 372.201 57.4492 372.201 54.4211C372.201 51.393 373.293 48.7849 375.483 46.5967C377.672 44.4086 380.282 43.3145 383.312 43.3145C386.342 43.3145 388.952 44.4086 391.142 46.5967C393.331 48.7849 394.426 51.393 394.426 54.4211C394.426 57.4492 393.331 60.0573 391.142 62.2454C388.952 64.4336 386.342 65.525 383.312 65.525ZM506.016 160.426C507.25 161.771 507.868 163.454 507.868 165.471C507.868 167.94 506.859 170.016 504.836 171.698C503.152 173.044 501.356 173.718 499.45 173.718C496.979 173.718 494.958 172.707 493.39 170.687L461.398 131.148L452.979 138.55V164.291C452.979 166.76 452.219 168.753 450.704 170.27C449.189 171.781 447.2 172.538 444.732 172.538C442.262 172.538 440.268 171.781 438.75 170.27C437.238 168.753 436.48 166.76 436.48 164.291V49.376C436.48 46.907 437.238 44.9168 438.75 43.4028C440.268 41.8887 442.262 41.129 444.732 41.129C447.2 41.129 449.189 41.8887 450.704 43.4028C452.219 44.9168 452.979 46.907 452.979 49.376V117.856L493.89 81.3422C495.352 79.8844 497.092 79.1568 499.11 79.1568C501.471 79.1568 503.379 80.0529 504.836 81.8478C506.294 83.3057 507.025 85.0444 507.025 87.064C507.025 89.418 506.126 91.3253 504.33 92.7859L473.352 120.381L506.016 160.426ZM615.264 81.3422C618.744 82.6878 620.483 84.8759 620.483 87.904C620.483 89.0275 620.146 90.373 619.472 91.9406L567.953 207.706C566.606 211.181 564.417 212.917 561.387 212.917C560.265 212.917 558.919 212.583 557.348 211.911C553.978 210.454 552.294 208.265 552.294 205.35C552.294 204.001 552.631 202.656 553.306 201.31L570.14 163.451L532.261 91.6062C531.699 90.5977 531.421 89.4207 531.421 88.0698C531.421 86.6147 531.868 85.2691 532.767 84.0386C533.664 82.8028 534.842 81.8505 536.3 81.1737C537.31 80.727 538.431 80.5023 539.668 80.5023C542.81 80.5023 545.168 82.0725 546.74 85.2129L577.551 146.457L604.659 85.3788C606.115 82.1287 608.304 80.5023 611.225 80.5023C612.681 80.5023 614.027 80.7805 615.264 81.3422Z" fill="white"/>
</g>
<defs>
<filter id="filter0_i" x="-0.0400391" y="0.0598145" width="214.283" height="217.943" filterUnits="userSpaceOnUse" color-interpolation-filters="sRGB">
<feFlood flood-opacity="0" result="BackgroundImageFix"/>
<feBlend mode="normal" in="SourceGraphic" in2="BackgroundImageFix" result="shape"/>
<feColorMatrix in="SourceAlpha" type="matrix" values="0 0 0 0 0 0 0 0 0 0 0 0 0 0 0 0 0 0 127 0" result="hardAlpha"/>
<feOffset dy="4"/>
<feGaussianBlur stdDeviation="2"/>
<feComposite in2="hardAlpha" operator="arithmetic" k2="-1" k3="1"/>
<feColorMatrix type="matrix" values="0 0 0 0 0 0 0 0 0 0 0 0 0 0 0 0 0 0 0.25 0"/>
<feBlend mode="normal" in2="shape" result="effect1_innerShadow"/>
</filter>
<filter id="filter1_i" x="240.356" y="41.129" width="380.127" height="175.788" filterUnits="userSpaceOnUse" color-interpolation-filters="sRGB">
<feFlood flood-opacity="0" result="BackgroundImageFix"/>
<feBlend mode="normal" in="SourceGraphic" in2="BackgroundImageFix" result="shape"/>
<feColorMatrix in="SourceAlpha" type="matrix" values="0 0 0 0 0 0 0 0 0 0 0 0 0 0 0 0 0 0 127 0" result="hardAlpha"/>
<feOffset dy="4"/>
<feGaussianBlur stdDeviation="2"/>
<feComposite in2="hardAlpha" operator="arithmetic" k2="-1" k3="1"/>
<feColorMatrix type="matrix" values="0 0 0 0 0 0 0 0 0 0 0 0 0 0 0 0 0 0 0.25 0"/>
<feBlend mode="normal" in2="shape" result="effect1_innerShadow"/>
</filter>
</defs>
</svg>
