<svg width="320" height="360" viewBox="0 0 320 360" fill="none" xmlns="http://www.w3.org/2000/svg">
  <path fill-rule="evenodd" clip-rule="evenodd" d="M320 0.746582V360H95.6393C89.7793 288.604 114.67 199.781 167.532 123.337C212.273 58.6367 267.918 16.0104 320 0.746582Z" fill="#C4C4C4" fill-opacity="0.1"/>
  <path fill-rule="evenodd" clip-rule="evenodd" d="M320 130.277V360H182.279C174.767 349.043 169.29 336.561 166.285 322.735C150.298 249.2 210.284 165.497 300.267 135.779C306.875 133.597 313.462 131.766 320 130.277Z" fill="#C4C4C4" fill-opacity="0.1"/>
  <path fill-rule="evenodd" clip-rule="evenodd" d="M0 267.514V360H274.294C253.612 313.007 207.983 271.245 149.821 252.037C92.5817 233.134 36.9921 240.629 0 267.514Z" fill="#C4C4C4" fill-opacity="0.1"/>
  <path fill-rule="evenodd" clip-rule="evenodd" d="M320 215.207V360H35.3969C56.9993 304.692 116.86 251.681 193.955 226.221C239.173 211.287 283.102 208.215 320 215.207Z" fill="#C4C4C4" fill-opacity="0.1"/>
</svg>
