<svg width="307" height="306" viewBox="0 0 307 306" fill="none" xmlns="http://www.w3.org/2000/svg">
<g clip-path="url(#clip0)">
<g filter="url(#filter0_d)">
<path d="M138.669 0L134.943 0.357688L125.628 1.56861C116.764 2.9472 107.252 5.36905 98.8013 8.37586C58.1888 22.8287 26.0602 54.1562 10.1989 94.1875C4.80009 107.817 1.42441 122.419 0.40351 137.036L0.0644514 140.761C-0.0361483 149.465 -0.162829 158.202 0.913961 166.843C3.95803 191.255 12.5388 214.02 26.5259 234.282C36.4629 248.675 48.8255 260.855 63.0325 271.008C74.2326 279.015 88.3426 286.065 101.409 290.42C112.975 294.273 125.017 296.807 137.178 297.656L140.904 297.995H156.553C161.158 297.988 166.494 297.194 171.084 296.553C188.659 294.105 206.693 287.931 222.129 279.209C238.024 270.226 251.59 259.033 263.386 245.087C301.484 200.041 309.077 134.975 282.724 82.2645C275.272 67.3646 265.271 53.7315 253.427 42.0246C240.71 29.4608 225.106 19.1885 208.716 12.113C194.55 5.99873 180.466 2.24673 165.123 0.607324L156.553 0H138.669Z" fill="#002B6C"/>
</g>
<path d="M126.369 57.3569L120.408 58.2213C110.638 59.9427 101.003 63.1209 92.0908 67.4616C69.5676 78.4344 51.2473 99.0909 42.5175 122.508C39.8125 129.77 38.3966 135.743 37.2192 143.373C36.8914 145.482 36.6045 145.903 36.5746 148.217V167.964C36.5821 171.575 38.1023 179.209 39.0077 182.868C42.7634 198.085 49.3694 211.509 59.5747 223.481C63.8931 228.548 70.9984 236.715 77.1871 239.219C79.7767 240.27 82.6084 240.616 85.3842 240.62H225.106C239.171 240.597 251.877 233.675 258.297 220.872C259.854 217.765 261.575 213.57 261.62 210.067V207.459C261.613 204.147 260.502 201.77 256.776 201.516C250.759 201.11 250.535 205.466 249.418 209.695C248.9 211.643 248.121 213.525 247.141 215.284C242.812 223.06 234.864 228.309 225.851 228.324H86.5019C81.811 228.317 80.9876 227.035 77.5597 224.069C74.3368 221.275 70.5587 217.195 67.9692 213.793L62.5406 206.341C52.7638 190.983 48.2852 174.176 48.4976 156.042L48.8366 152.316C50.1817 132.769 57.5031 114.974 70.3762 100.153L74.9553 94.9514C82.1575 87.8945 90.2055 82.5627 99.1701 78.0767C107.468 73.9298 115.001 71.5936 124.134 70.1256L131.586 69.2276C140.286 69.127 147.562 69.0674 156.177 70.908C170.968 74.0639 184.065 81.0723 195.671 90.6368L200.142 94.9365C205.5 100.294 208.142 103.629 212.393 109.84C214.502 112.921 215.951 117.422 220.262 117.65C226.451 117.974 228.389 112.541 225.736 107.605C221.712 100.112 213.191 89.4556 206.849 83.863L201.633 79.2876C189.244 69.4065 174.076 61.8466 158.412 59.0112C154.735 58.3442 150.196 57.3122 146.489 57.3569H137.92H126.369Z" fill="white"/>
<path d="M146.49 125.68C143.714 126.384 140.655 127.137 138.293 128.821C136.754 129.92 134.478 132.16 133.367 133.687C132.287 135.178 131.437 136.791 130.841 138.531C127.786 147.507 130.908 152.686 135.528 160.141L142.075 170.574C145.35 175.745 150.849 185.943 155.432 189.349C159.493 192.37 164.263 193.294 169.218 193.302H249.325C253.167 193.294 257.343 192.434 257.515 187.713C257.671 183.469 253.778 175.883 252.101 171.692L238.17 137.041C236.385 132.424 235.372 127.286 229.95 125.781C228.758 125.453 227.812 125.494 226.597 125.49H173.317H156.177L146.49 125.68ZM146.49 137.186C148.334 136.936 150.03 136.936 151.706 137.871C158.126 141.448 155.413 151.907 147.608 151.281C139.884 150.659 138.032 139.727 146.49 137.186Z" fill="white"/>
<path d="M110.86 206.563L136.535 193.482L143.425 207.006L117.75 220.087L110.86 206.563Z" fill="#FEC007"/>
<path d="M99.7511 175.488L94.2612 207.033L60.278 224.346L48.65 201.521L99.7511 175.488Z" fill="#F26200"/>
<g clip-path="url(#clip1)">
<path d="M217.175 99.6937L249.53 95.4543L254.053 104.33L51.6647 207.439L42.1901 188.842L217.175 99.6937Z" fill="#8B381E"/>
</g>
<g clip-path="url(#clip2)">
<path d="M42.1909 188.841L217.176 99.6934C192.559 51.374 133.429 32.158 85.1092 56.7747C36.7898 81.3915 17.5739 140.521 42.1909 188.841Z" fill="#FEC007"/>
</g>
<path d="M46.1934 186.802L186.194 115.477C175.583 99.5721 159.573 88.0733 141.03 83.0666C122.083 77.9459 102.01 80.0428 84.5118 88.9577C67.0131 97.8725 53.5213 112.875 46.5253 131.213C39.6745 149.157 39.56 168.87 46.1934 186.802Z" fill="#FE9700"/>
<path d="M55.8926 181.861C43.664 149.78 57.3457 112.977 88.6295 97.039C119.913 81.1012 157.729 91.6683 176.491 120.42L55.8926 181.861Z" fill="#F26200"/>
<path d="M77.7799 159.53L99.7587 148.333C103.144 146.608 104.489 142.467 102.765 139.082C101.041 135.697 96.8989 134.351 93.5141 136.075L71.5353 147.273C68.1505 148.997 66.8045 153.139 68.529 156.524C70.2534 159.908 74.3951 161.254 77.7799 159.53Z" fill="#E21717"/>
<g clip-path="url(#clip3)">
<path d="M39.1263 190.376C26.814 166.195 24.6521 138.668 33.0389 112.859C41.4283 87.0441 59.3678 66.0415 83.5534 53.72C119.153 35.5835 162.281 40.0497 193.426 65.0977C194.902 66.2839 195.136 68.4418 193.949 69.9168C192.764 71.392 190.606 71.6268 189.13 70.4398C160.084 47.0798 119.864 42.9146 86.6651 59.8279C41.1287 83.0268 22.3553 138.23 43.7432 184.202L51.6538 180.172C46.8577 165.713 46.8245 149.919 51.6123 135.358C56.7259 119.806 67.1004 106.386 80.8253 97.5723C82.4214 96.5463 84.5391 97.0113 85.5617 98.6045C86.5844 100.197 86.1225 102.318 84.5294 103.341C60.0539 119.059 49.2075 149.543 57.8385 177.022L171.433 119.15C154.227 95.9398 123.114 86.8218 95.9538 97.4971C94.192 98.19 92.2025 97.3232 91.51 95.5613C90.8175 93.7993 91.6828 91.8059 93.4458 91.1175C123.849 79.1663 158.732 89.6398 177.618 115.999L212.511 98.2227C208.827 91.5879 204.381 85.4367 199.264 79.8997C197.979 78.5093 198.065 76.3407 199.455 75.0558C200.846 73.7724 203.014 73.8572 204.299 75.247C210.066 81.4879 215.035 88.4558 219.097 95.9844L249.085 92.0558C250.524 91.8675 251.926 92.6054 252.585 93.8983L257.107 102.774C257.966 104.462 257.296 106.525 255.608 107.385L212.419 129.388C210.732 130.247 208.668 129.577 207.809 127.89C206.949 126.203 207.62 124.139 209.307 123.28L249.442 102.832L247.575 99.1673L218.205 103.015L178.047 123.474L57.4487 184.914L46.7999 190.339L51.7045 199.966L53.1628 202.829L197.275 129.41C198.962 128.55 201.025 129.221 201.885 130.908C202.744 132.595 202.074 134.658 200.387 135.518L141.12 165.712L134.364 190.741L134.98 190.427C136.667 189.567 138.73 190.238 139.59 191.925L146.481 205.45C147.34 207.138 146.669 209.201 144.982 210.061L135.196 215.046L147.851 239.887C148.71 241.574 148.04 243.637 146.353 244.497C144.666 245.356 142.602 244.686 141.743 242.999L129.087 218.158L119.305 223.142C117.618 224.002 115.554 223.331 114.695 221.644L107.804 208.119C107.185 206.904 107.363 205.496 108.139 204.481L98.6308 201.917L97.6377 207.622C97.4532 208.685 96.7785 209.599 95.817 210.088L61.8346 227.401C60.1475 228.261 58.084 227.59 57.2245 225.903L48.6105 208.995L45.5963 203.078L39.1357 190.397C39.1322 190.39 39.1297 190.383 39.1263 190.376ZM119.247 215.478L138.816 205.508L135.037 198.091L130.628 200.338C130.617 200.343 130.608 200.35 130.597 200.355C130.585 200.361 130.573 200.366 130.561 200.372L118.733 206.398C118.722 206.403 118.713 206.41 118.702 206.415C118.69 206.421 118.678 206.426 118.665 206.432L115.467 208.062L119.246 215.479L119.247 215.478ZM116.764 199.707L126.131 194.935L132.886 169.906L101.411 185.942L99.8109 195.135L116.764 199.707ZM91.178 204.758L92.5121 197.093C92.5137 197.083 92.5157 197.072 92.5172 197.062L93.7755 189.832L56.2747 208.937L61.7768 219.737L91.178 204.758Z" fill="black"/>
</g>
<path d="M79.3359 162.584C74.2725 165.164 68.0544 163.143 65.4748 158.08C62.8953 153.016 64.916 146.798 69.9794 144.219L91.9582 133.021C97.022 130.441 103.24 132.462 105.82 137.526C108.399 142.589 106.379 148.807 101.315 151.387L79.3359 162.584ZM99.711 140.638C98.8473 138.942 96.765 138.266 95.0697 139.13L73.0909 150.327C71.3956 151.191 70.7191 153.273 71.5827 154.968C72.4464 156.663 74.5283 157.34 76.2236 156.476L98.2024 145.279C99.8981 144.415 100.575 142.333 99.711 140.638Z" fill="black"/>
</g>
<defs>
<filter id="filter0_d" x="0" y="0" width="306.275" height="305.995" filterUnits="userSpaceOnUse" color-interpolation-filters="sRGB">
<feFlood flood-opacity="0" result="BackgroundImageFix"/>
<feColorMatrix in="SourceAlpha" type="matrix" values="0 0 0 0 0 0 0 0 0 0 0 0 0 0 0 0 0 0 127 0"/>
<feOffset dx="4" dy="4"/>
<feGaussianBlur stdDeviation="2"/>
<feColorMatrix type="matrix" values="0 0 0 0 0 0 0 0 0 0 0 0 0 0 0 0 0 0 0.25 0"/>
<feBlend mode="normal" in2="BackgroundImageFix" result="effect1_dropShadow"/>
<feBlend mode="normal" in="SourceGraphic" in2="effect1_dropShadow" result="shape"/>
</filter>
<clipPath id="clip0">
<rect width="307" height="306" fill="white"/>
</clipPath>
<clipPath id="clip1">
<rect width="233.994" height="233.994" fill="white" transform="matrix(-0.89103 0.453944 0.453944 0.89103 193.445 -22.1855)"/>
</clipPath>
<clipPath id="clip2">
<rect width="233.994" height="233.994" fill="white" transform="matrix(-0.89103 0.453944 0.453944 0.89103 193.445 -22.1855)"/>
</clipPath>
<clipPath id="clip3">
<rect width="233.994" height="233.994" fill="white" transform="matrix(-0.89103 0.453944 0.453944 0.89103 193.445 -22.1855)"/>
</clipPath>
</defs>
</svg>
